<svg xmlns="http://www.w3.org/2000/svg" xmlns:xlink="http://www.w3.org/1999/xlink" width="500" zoomAndPan="magnify" viewBox="0 0 375 374.999991" height="500" preserveAspectRatio="xMidYMid meet" version="1.0"><defs><g/><clipPath id="ee0191d3f7"><path d="M 117.324219 106 L 166 106 L 166 177 L 117.324219 177 Z M 117.324219 106 " clip-rule="nonzero"/></clipPath><clipPath id="965ac18416"><path d="M 205 106 L 253.824219 106 L 253.824219 177 L 205 177 Z M 205 106 " clip-rule="nonzero"/></clipPath><clipPath id="bdc7ea0711"><path d="M 161 88.296875 L 209 88.296875 L 209 194.796875 L 161 194.796875 Z M 161 88.296875 " clip-rule="nonzero"/></clipPath></defs><path fill="#12c2e9" d="M 160.390625 175.128906 C 159.636719 175.128906 158.894531 174.875 158.300781 174.398438 L 120.128906 144.214844 C 119.308594 143.566406 118.835938 142.59375 118.835938 141.546875 C 118.835938 140.5 119.308594 139.527344 120.125 138.871094 L 158.300781 108.691406 C 158.894531 108.21875 159.636719 107.964844 160.390625 107.964844 C 161.433594 107.964844 162.40625 108.433594 163.046875 109.261719 C 163.605469 109.972656 163.859375 110.863281 163.75 111.761719 C 163.644531 112.664062 163.191406 113.46875 162.480469 114.03125 L 127.691406 141.546875 L 162.480469 169.058594 C 163.191406 169.625 163.644531 170.429688 163.75 171.324219 C 163.859375 172.230469 163.605469 173.113281 163.046875 173.832031 C 162.40625 174.652344 161.433594 175.128906 160.390625 175.128906 " fill-opacity="1" fill-rule="nonzero"/><g clip-path="url(#ee0191d3f7)"><path fill="#233dff" d="M 160.390625 106.515625 C 159.3125 106.515625 158.261719 106.882812 157.414062 107.554688 L 119.238281 137.738281 C 118.066406 138.667969 117.398438 140.054688 117.398438 141.546875 C 117.398438 143.039062 118.070312 144.429688 119.238281 145.355469 L 157.414062 175.539062 C 158.253906 176.203125 159.3125 176.574219 160.390625 176.574219 C 161.882812 176.574219 163.265625 175.898438 164.179688 174.722656 C 164.980469 173.710938 165.332031 172.441406 165.183594 171.15625 C 165.027344 169.871094 164.386719 168.722656 163.375 167.921875 L 130.019531 141.546875 L 163.375 115.171875 C 164.386719 114.367188 165.027344 113.21875 165.183594 111.933594 C 165.332031 110.648438 164.980469 109.382812 164.179688 108.363281 C 163.265625 107.1875 161.875 106.515625 160.390625 106.515625 Z M 160.390625 109.410156 C 160.964844 109.410156 161.535156 109.664062 161.917969 110.152344 C 162.585938 111.003906 162.433594 112.230469 161.59375 112.894531 L 125.359375 141.546875 L 161.59375 170.195312 C 162.433594 170.863281 162.585938 172.089844 161.917969 172.933594 C 161.535156 173.425781 160.964844 173.679688 160.390625 173.679688 C 159.96875 173.679688 159.550781 173.546875 159.191406 173.265625 L 121.015625 143.078125 C 120.550781 142.710938 120.277344 142.140625 120.277344 141.546875 C 120.277344 140.945312 120.550781 140.382812 121.015625 140.011719 L 159.191406 109.828125 C 159.542969 109.542969 159.96875 109.410156 160.390625 109.410156 " fill-opacity="1" fill-rule="nonzero"/></g><path fill="#12c2e9" d="M 210.757812 175.128906 C 209.714844 175.128906 208.75 174.652344 208.097656 173.832031 C 206.945312 172.363281 207.199219 170.21875 208.667969 169.058594 L 243.464844 141.546875 L 208.667969 114.03125 C 207.199219 112.871094 206.945312 110.730469 208.097656 109.261719 C 208.75 108.433594 209.714844 107.964844 210.757812 107.964844 C 211.511719 107.964844 212.257812 108.21875 212.847656 108.691406 L 251.027344 138.871094 C 251.84375 139.527344 252.308594 140.5 252.308594 141.546875 C 252.308594 142.59375 251.84375 143.566406 251.019531 144.214844 L 212.847656 174.398438 C 212.257812 174.875 211.511719 175.128906 210.757812 175.128906 " fill-opacity="1" fill-rule="nonzero"/><g clip-path="url(#965ac18416)"><path fill="#233dff" d="M 210.757812 106.515625 C 209.273438 106.515625 207.890625 107.1875 206.96875 108.363281 C 205.320312 110.464844 205.683594 113.515625 207.777344 115.171875 L 241.132812 141.546875 L 207.777344 167.921875 C 205.683594 169.570312 205.320312 172.628906 206.96875 174.722656 C 207.890625 175.898438 209.273438 176.574219 210.757812 176.574219 C 211.835938 176.574219 212.890625 176.203125 213.734375 175.539062 L 251.914062 145.355469 C 253.082031 144.429688 253.75 143.039062 253.75 141.546875 C 253.75 140.054688 253.082031 138.667969 251.917969 137.738281 L 213.742188 107.554688 C 212.894531 106.882812 211.835938 106.515625 210.757812 106.515625 Z M 210.757812 109.410156 C 211.179688 109.410156 211.605469 109.542969 211.957031 109.828125 L 250.132812 140.011719 C 250.597656 140.382812 250.871094 140.945312 250.871094 141.546875 C 250.871094 142.140625 250.597656 142.710938 250.132812 143.078125 L 211.957031 173.265625 C 211.605469 173.546875 211.179688 173.679688 210.757812 173.679688 C 210.183594 173.679688 209.613281 173.425781 209.234375 172.933594 C 208.570312 172.089844 208.714844 170.863281 209.554688 170.195312 L 245.789062 141.546875 L 209.554688 112.894531 C 208.714844 112.230469 208.570312 111.003906 209.234375 110.152344 C 209.613281 109.664062 210.1875 109.410156 210.757812 109.410156 " fill-opacity="1" fill-rule="nonzero"/></g><path fill="#12c2e9" d="M 166.605469 193.34375 C 166.183594 193.34375 165.773438 193.261719 165.382812 193.113281 C 164.542969 192.78125 163.875 192.144531 163.511719 191.316406 C 163.144531 190.484375 163.125 189.5625 163.449219 188.71875 L 200.730469 91.917969 C 201.234375 90.621094 202.5 89.75 203.882812 89.75 C 204.304688 89.75 204.71875 89.828125 205.109375 89.980469 C 206.84375 90.65625 207.710938 92.632812 207.039062 94.378906 L 169.761719 191.171875 C 169.257812 192.46875 167.988281 193.34375 166.605469 193.34375 " fill-opacity="1" fill-rule="nonzero"/><g clip-path="url(#bdc7ea0711)"><path fill="#233dff" d="M 203.882812 88.300781 C 201.90625 88.300781 200.097656 89.550781 199.390625 91.398438 L 162.105469 188.191406 C 161.644531 189.402344 161.675781 190.714844 162.191406 191.902344 C 162.71875 193.082031 163.660156 193.996094 164.867188 194.460938 C 165.425781 194.679688 166.003906 194.789062 166.605469 194.789062 C 168.578125 194.789062 170.386719 193.546875 171.101562 191.695312 L 208.378906 94.898438 C 209.34375 92.40625 208.105469 89.59375 205.621094 88.632812 C 205.070312 88.410156 204.480469 88.300781 203.882812 88.300781 Z M 203.882812 91.195312 C 204.117188 91.195312 204.355469 91.242188 204.585938 91.328125 C 205.585938 91.71875 206.082031 92.84375 205.695312 93.851562 L 168.414062 190.644531 C 168.121094 191.421875 167.382812 191.894531 166.605469 191.894531 C 166.367188 191.894531 166.132812 191.855469 165.902344 191.761719 C 164.898438 191.375 164.40625 190.242188 164.796875 189.238281 L 202.074219 92.445312 C 202.375 91.671875 203.105469 91.195312 203.882812 91.195312 " fill-opacity="1" fill-rule="nonzero"/></g><g fill="#919eff" fill-opacity="1"><g transform="translate(116.960257, 301.736656)"><g><path d="M 76.046875 0 L 47.519531 -75.859375 L 29.652344 -75.859375 L 1.308594 0 L 16.464844 0 L 23.292969 -19.269531 L 53.972656 -19.269531 L 60.800781 0 Z M 49.390625 -31.898438 L 27.78125 -31.898438 L 38.539062 -61.457031 Z M 49.390625 -31.898438 "/></g></g></g><g fill="#919eff" fill-opacity="1"><g transform="translate(190.762399, 301.736656)"><g><path d="M 37.601562 -42.933594 L 18.988281 -75.859375 L 1.964844 -75.859375 L 30.121094 -28.53125 L 30.121094 0 L 44.804688 0 L 44.804688 -28.53125 L 72.960938 -75.859375 L 56.21875 -75.859375 Z M 37.601562 -42.933594 "/></g></g></g><path stroke-linecap="butt" transform="matrix(0.75, 0, 0, 0.75, -151.219322, 206.268003)" fill="none" stroke-linejoin="miter" d="M 453.677876 122.002045 L 415.646624 20.845789 L 391.802872 20.845789 L 354.016411 122.002045 L 374.235163 122.002045 L 383.33933 96.298919 L 424.235166 96.298919 L 433.339333 122.002045 Z M 418.141416 79.460376 L 389.33933 79.460376 L 403.677873 40.059332 Z M 500.834129 64.75725 L 475.985169 20.845789 L 453.302876 20.845789 L 490.844545 83.970793 L 490.844545 122.002045 L 510.42788 122.002045 L 510.42788 83.970793 L 547.969549 20.845789 L 525.651839 20.845789 Z M 500.834129 64.75725 " stroke="#233dff" stroke-width="5.144824" stroke-opacity="1" stroke-miterlimit="4"/><g fill="#ffffff" fill-opacity="1"><g transform="translate(254.107781, 109.902184)"><g><path d="M 37.75 -25.15625 L 34.03125 -25.15625 L 34.03125 -38.453125 L 29.671875 -27.171875 L 27.046875 -27.171875 L 22.6875 -38.453125 L 22.6875 -25.15625 L 18.9375 -25.15625 L 18.9375 -44.0625 L 24.28125 -44.0625 L 28.359375 -32.984375 L 32.4375 -44.0625 L 37.75 -44.0625 Z M 15.703125 -40.234375 L 9.75 -40.234375 L 9.75 -25.15625 L 5.9375 -25.15625 L 5.9375 -40.234375 L 0 -40.234375 L 0 -44.0625 L 15.703125 -44.0625 Z M 15.703125 -40.234375 "/></g></g></g></svg>